<?xml version="1.0" encoding="utf-8"?>
<!-- Svg Vector Icons : http://www.onlinewebfonts.com/icon -->
<!DOCTYPE svg PUBLIC "-//W3C//DTD SVG 1.1//EN" "http://www.w3.org/Graphics/SVG/1.1/DTD/svg11.dtd">
<svg version="1.1" xmlns="http://www.w3.org/2000/svg" xmlns:xlink="http://www.w3.org/1999/xlink" x="0px" y="0px" viewBox="0 0 1000 1000" enable-background="new 0 0 1000 1000" xml:space="preserve">
<metadata> Svg Vector Icons : http://www.onlinewebfonts.com/icon </metadata>
<g><g transform="translate(0.000000,511.000000) scale(0.100000,-0.100000)"><path d="M4929,1564.9c-16.7-27.1-121.1-238-231.7-469.7c-156.6-323.6-212.9-423.8-248.4-430c-23-6.3-258.9-41.7-519.8-79.3c-405-58.4-480.1-75.2-498.9-108.6c-16.7-33.4,29.2-89.8,357-419.6L4165-322.2L4079.4-817c-45.9-273.5-79.3-509.4-73.1-526.1c6.3-18.8,25.1-37.6,43.8-43.8c16.7-6.3,229.6,91.9,490.6,229.6l461.4,240.1l457.2-240.1c267.2-142,471.8-238,490.6-229.6c18.8,6.3,37.6,25,43.8,41.7c6.3,16.7-27.1,254.7-73.1,528.2L5835-320.1l377.8,377.8c329.9,329.8,375.8,384.1,357,419.6c-18.8,33.4-96,50.1-540.7,116.9c-283.9,41.8-519.8,83.5-524,91.9c-4.2,8.3-108.6,219.2-229.6,465.5c-179.5,361.1-231.7,450.9-269.3,455.1C4977,1610.9,4949.9,1596.2,4929,1564.9z"/><path d="M1083.7,894.8L902.1,533.7l-336.1-48C123.5,423,113,420.9,100.5,385.5C92.1,364.6,190.3,253.9,374,68.2l288.1-288.1l-64.7-375.8c-35.5-204.6-64.7-384.1-64.7-396.6c0-64.7,87.7-35.5,402.9,129.4c185.8,98.1,348.6,177.4,363.2,177.4c14.6,0,177.4-81.4,363.2-179.5c183.7-98.1,348.6-173.3,365.3-167c39.7,14.6,37.6,39.7-33.4,453l-62.6,363.3l283.9,283.9c194.1,194.1,281.8,296.4,273.5,317.3c-6.3,18.8-52.2,39.7-112.7,48c-54.3,8.3-231.7,33.4-392.5,58.4l-292.3,43.8l-177.4,354.9c-114.8,227.5-190,357-212.9,361.1C1273.7,1258.1,1223.6,1176.7,1083.7,894.8z"/><path d="M8659.5,1230.9c-8.3-12.5-91.8-175.4-183.7-359.1l-167-336.1l-292.3-43.8c-160.8-25-338.2-50.1-392.5-58.4c-60.5-8.3-106.5-29.2-112.7-48c-8.3-20.9,79.3-123.2,273.5-317.3l283.9-283.9l-62.6-354.9c-71-405-73.1-446.7-33.4-461.4c16.7-6.3,181.6,68.9,365.3,167c185.8,98.1,348.6,179.5,363.2,179.5c14.6,0,177.4-79.3,363.2-177.4c311-164.9,402.9-194.1,402.9-131.5c0,10.4-29.2,190-62.6,398.7L9340-217.8l286,286c185.8,185.8,281.8,296.4,273.5,317.3c-12.5,35.5-23,37.6-465.5,100.2l-336.1,48l-179.5,361.2C8745.1,1239.3,8703.3,1293.5,8659.5,1230.9z"/></g></g>
</svg>